<?xml version="1.0" standalone="no"?><!DOCTYPE svg PUBLIC "-//W3C//DTD SVG 1.1//EN" "http://www.w3.org/Graphics/SVG/1.1/DTD/svg11.dtd"><svg t="1630746623814" class="icon" viewBox="0 0 1507 1024" version="1.1" xmlns="http://www.w3.org/2000/svg" p-id="15470" xmlns:xlink="http://www.w3.org/1999/xlink" width="70.640625" height="48"><defs><style type="text/css"></style></defs><path d="M298.382222 62.577778c-42.097778 5.404444-84.195556 40.106667-98.133333 80.497778C191.146667 167.822222 26.453333 876.942222 25.884444 889.742222c-1.422222 36.977778 19.911111 64.284444 55.182223 71.111111 13.084444 3.128889 430.933333 3.128889 444.586666 0 39.822222-7.68 77.368889-38.684444 91.022223-76.515555 5.404444-14.506667 175.217778-736.995556 175.217777-749.226667 2.275556-34.133333-18.488889-62.008889-51.2-71.964444-7.68-1.137778-424.675556-2.844444-442.311111-0.568889z" fill="#E60012" p-id="15471"></path><path d="M687.786667 62.577778c-42.097778 5.404444-84.195556 40.106667-97.848889 80.213333-8.533333 25.031111-173.795556 733.866667-173.795556 746.951111-1.422222 36.977778 19.911111 64.284444 55.182222 71.111111 13.084444 3.128889 430.933333 3.128889 444.586667 0 39.822222-7.68 77.368889-38.684444 91.022222-76.515555 5.404444-14.506667 175.217778-736.995556 175.217778-749.226667 2.275556-34.133333-18.488889-62.008889-51.2-71.964444-8.248889-1.137778-425.528889-2.844444-443.164444-0.568889z" fill="#00508E" p-id="15472"></path><path d="M1094.257778 62.577778c-42.097778 5.404444-84.195556 40.106667-97.848889 80.213333-8.533333 25.031111-173.795556 733.866667-173.795556 746.951111-1.422222 36.977778 19.911111 64.284444 55.182223 71.111111 13.084444 3.128889 323.697778 3.128889 337.635555 0 39.822222-7.68 77.368889-38.684444 91.022222-76.515555 5.404444-14.506667 175.217778-736.995556 175.217778-749.226667 2.275556-34.133333-18.488889-62.008889-51.2-71.964444-7.68-1.991111-356.693333-3.413333-374.328889-1.137778h38.4l-0.284444 0.568889z" fill="#00908C" p-id="15473"></path><path d="M285.297778 292.977778c0 0.853333-0.853333 5.404444-2.275556 9.955555-17.635556 59.164444-35.271111 138.524444-32.995555 148.48 6.257778 29.582222 49.777778 27.306667 65.137777-3.697777 4.551111-8.248889 37.546667-147.057778 37.546667-156.728889 0-0.853333 52.053333 0 52.053333 0.853333 0 0 0 2.275556-0.853333 4.551111s-9.102222 34.133333-18.488889 71.964445c-20.764444 80.213333-23.04 88.746667-33.564444 104.391111-35.271111 51.484444-153.031111 50.062222-162.133334-2.275556-2.275556-11.377778 23.04-142.506667 34.417778-178.062222 0-2.56 61.155556-1.137778 61.155556 0.568889z m782.222222 0c35.271111 7.68 45.795556 35.555556 29.866667 77.368889-16.213333 41.528889-50.631111 59.733333-110.933334 59.733333-18.488889 0-16.782222-3.128889-28.444444 53.76-2.275556 10.524444-4.551111 20.48-4.551111 21.902222-0.853333 3.697778-55.182222 3.697778-54.328889 0 45.795556-194.56 49.777778-211.342222 49.777778-212.764444l0.853333-2.275556h55.182222c43.52 0.568889 55.751111 0.568889 62.577778 2.275556z m-472.177778 74.808889c7.68 1.422222 13.084444 7.68 13.084445 12.8 0 19.057778-38.968889 31.857778-53.475556 17.351111-13.937778-14.222222 15.075556-36.124444 40.391111-30.151111z m-135.68 14.506666c0 1.422222-0.853333 4.551111-0.853333 6.826667l-0.853333 3.128889 9.102222-4.551111c24.462222-12.231111 48.355556-9.955556 55.751111 5.404444 4.551111 9.102222 3.697778 14.506667-8.533333 70.542222-2.275556 9.955556-5.404444 23.608889-6.257778 30.435556-3.128889 15.075556-0.853333 14.506667-28.444445 14.506667-23.608889 0-23.608889 0-23.04-2.275556 0-1.422222 3.128889-13.653333 6.257778-28.16 12.231111-53.76 13.084444-61.44 2.275556-61.44-6.257778 0-14.506667 3.697778-15.36 5.973333-1.422222 5.404444-15.36 71.111111-16.213334 77.368889l-1.422222 6.826667-23.608889 1.422222c-29.013333 0.853333-26.737778 3.128889-20.764444-22.755555 8.533333-33.28 13.084444-56.888889 16.213333-77.937778 3.697778-22.755556 1.422222-20.48 23.04-23.608889 9.955556-1.422222 19.911111-3.128889 23.04-3.697778 8.248889-2.56 9.671111-1.706667 9.671111 1.991111z m363.804445-0.853333c0 1.422222-0.853333 4.551111-0.853334 6.826667l-0.853333 3.697777 9.102222-4.551111c47.502222-24.177778 65.706667-4.551111 52.053334 57.457778-3.128889 13.653333-6.826667 33.28-9.102223 42.382222-1.422222 9.955556-3.697778 18.204444-4.551111 19.057778-3.128889 3.128889-48.355556 2.275556-47.502222 0 0-1.422222 3.128889-13.653333 6.257778-27.306667 13.084444-55.182222 13.084444-62.008889 1.422222-62.008888-9.102222 0-13.653333 3.128889-15.36 9.955555-2.275556 8.248889-13.653333 62.862222-15.36 72.817778l-1.422222 8.248889-23.608889 0.853333c-29.013333 0.853333-26.737778 3.697778-19.911111-24.177778 7.68-30.435556 13.084444-58.311111 16.782222-78.791111 3.128889-19.626667 0.853333-17.351111 19.911111-20.48 8.533333-1.422222 19.057778-3.128889 23.04-3.697778 7.68-3.982222 9.955556-3.128889 9.955556-0.284444z m464.497777-0.568889c3.128889 46.08 3.697778 59.733333 3.697778 60.586667s6.826667-11.377778 14.506667-26.453334c15.36-30.435556 12.231111-27.306667 29.013333-29.582222 4.551111-0.853333 13.653333-2.275556 20.764445-3.697778 16.782222-3.128889 16.782222-4.551111-2.275556 28.728889-25.884444 44.657778-62.008889 107.52-75.093333 130.275556-38.968889 70.542222-38.968889 70.542222-71.964445 71.111111l-19.911111 0.853333 1.422222-5.404444c0.853333-3.128889 3.128889-9.102222 3.697778-13.653333l2.844445-8.248889h6.257777c6.826667 0 8.533333-1.422222 14.506667-12.231111 2.275556-3.697778 6.257778-9.955556 7.68-13.653334 2.275556-3.697778 9.955556-15.928889 16.213333-28.16l12.231112-21.333333-3.128889-28.16c-3.697778-32.711111-8.533333-71.111111-10.808889-82.488889-1.422222-10.524444-1.422222-10.524444 12.231111-12.231111 6.257778-0.853333 16.213333-3.128889 21.333333-3.697778 14.506667-4.266667 15.928889-4.266667 16.782222-2.56z m-577.137777 0.568889c58.88 10.524444 38.4 112.071111-25.884445 126.577778-43.52 9.955556-73.386667-6.826667-73.386666-40.106667 0.568889-58.311111 44.088889-96.142222 99.271111-86.471111z m440.888889 3.128889c3.128889 1.422222 7.68 4.551111 9.955555 6.826667 3.697778 3.697778 3.697778 3.697778 3.697778 1.422222 0.853333-3.128889 0-3.128889 30.72-7.68 24.462222-3.697778 23.608889-3.697778 22.186667 3.128889-9.955556 42.382222-18.488889 79.644444-22.186667 97.848889-5.404444 27.306667-1.422222 24.177778-31.288889 23.608888h-25.315556v-3.128888c0-3.128889-1.422222-4.551111-3.128888-2.275556-8.533333 13.653333-49.777778 8.248889-61.155556-8.248889-28.444444-42.666667 32.142222-131.982222 76.515556-111.502222z m-549.546667 21.902222s0 3.697778-0.853333 6.826667c-6.257778 24.177778-16.782222 73.386667-19.057778 82.488889l-2.275556 11.377777-25.315555 0.853334c-29.866667 0.853333-28.444444 2.275556-22.186667-15.928889 5.404444-17.351111 10.808889-38.684444 13.653333-61.44 3.128889-19.626667 0-16.782222 22.186667-19.626667 9.955556-1.422222 20.764444-3.128889 23.04-3.697778 6.257778-1.422222 9.955556-1.422222 10.808889-0.853333z m133.973333 156.728889c0 0.853333-1.422222 3.697778-3.697778 7.68-1.422222 3.697778-3.697778 6.826667-3.697777 6.826667 45.226667 0.853333 46.648889 0.853333 45.795555 3.128889l-8.533333 27.306666h-65.706667l-3.697778 3.128889c-8.533333 7.68-52.906667 17.351111-52.906666 11.377778l8.533333-27.306667h6.257778c10.808889 0 13.084444-2.275556 22.186667-18.204444l7.68-14.506667c39.253333-0.853333 47.786667 0 47.786666 0.568889z m100.124445 0c0 0.853333-0.853333 4.551111-2.275556 9.102222-1.422222 3.697778-2.275556 7.68-2.275555 8.248889 0 0 3.697778-1.422222 8.533333-5.404444 16.782222-11.377778 31.288889-13.653333 74.24-13.653334 16.782222 0 31.288889 0 32.142222 0.853334 0.853333 1.422222-24.462222 83.342222-28.444444 91.022222-5.404444 9.955556-10.808889 15.075556-19.057778 19.057778l-7.68 3.128889-43.52 0.853333-43.52 0.853333-7.68 25.884445c-15.36 49.208889-15.36 45.511111 6.826667 43.235555 17.635556-1.422222 16.782222-3.128889 11.377777 15.075556l-4.551111 15.075555h-22.186666c-48.355556 0.853333-54.328889-2.275556-49.777778-21.902222 2.275556-9.955556 57.457778-190.008889 58.311111-191.715555 0.568889-1.137778 39.537778-1.137778 39.537778 0.284444z m201.386666 0c0 0.853333-0.853333 3.128889-1.422222 5.973333-2.275556 7.68-2.275556 7.68 7.68 2.275556 13.084444-6.826667 43.52-9.102222 106.382222-9.102222h19.911111v9.102222c0 10.524444 0.853333 11.377778 9.955556 12.8l6.826667 0.853333-3.697778 13.653334-3.697778 13.653333h-13.653333c-35.271111 0.853333-40.675556-3.128889-41.244445-23.608889v-9.955556l-2.275555 6.826667-2.275556 7.68h-7.68c-3.697778 0-7.68 0-7.68 0.853333 0 0-37.546667 123.448889-42.951111 140.8-0.853333 1.422222 0 2.275556 4.551111 2.275556 6.826667 0 6.826667 0 4.551111 5.973333-2.275556 6.826667-2.275556 6.826667 5.404445 6.826667 5.404444 0 8.533333-0.853333 12.231111-3.128889 5.404444-3.128889 5.404444-2.275556 29.866667-36.408889l9.955555-14.506666h-20.764444c-25.315556 0-23.04 1.422222-18.488889-13.653334l3.697778-12.231111h50.631111c4.551111-15.928889 6.257778-20.48 6.257777-21.333333 0-0.853333-10.808889-0.853333-24.462222-0.853334h-24.462222l7.68-27.306666h68.835556c37.546667 0 68.835556 0 68.835555 0.853333s-1.422222 6.826667-3.697778 13.653333l-3.697777 12.8-23.04 0.853334-23.04 0.853333c-3.697778 11.377778-5.404444 16.782222-6.257778 18.204445l-0.853334 3.128888h22.186667c25.884444 0 24.462222-1.422222 19.057778 13.653334l-3.697778 12.231111h-50.631111l-7.68 9.102222h19.911111l3.128889 18.204445c3.128889 20.48 3.128889 20.48 13.084444 20.48 7.68 0 7.68-1.422222 2.275556 16.782222l-4.551111 15.075555h-14.506667c-25.315556 0-29.866667-3.697778-34.417778-29.582222l-2.275555-16.782222-9.102222 12.231111c-25.315556 34.133333-26.737778 34.702222-58.88 34.702222-20.764444 0-20.764444 0-17.635556-5.973333 0.853333-3.128889 0.853333-3.128889-5.404444-3.128889s-6.257778 0-7.68 4.551111l-0.853334 4.551111h-42.951111l0.853334-2.275555c2.275556-7.68 6.257778-6.826667-40.675556-6.826667-40.675556 0-42.951111 0-42.097778-2.275556l3.697778-13.653333c4.551111-13.653333 3.697778-13.653333 8.533333-13.653333 3.697778 0 3.697778 0 5.404445-5.404445 35.84-118.897778 47.502222-156.728889 48.924444-162.133333l3.128889-9.955556h21.333333c13.653333 0.853333 23.608889 1.706667 23.608889 2.275556z m-271.644444 65.137778l-8.533333 26.453333h-45.795556c-4.551111 15.075556-6.257778 19.626667-6.826667 21.333333-0.853333 2.275556 0.853333 2.275556 23.04 2.275556 13.084444 0 23.608889 0.853333 23.608889 0.853333 0 0.853333-0.853333 2.275556-1.422222 4.551111-0.853333 1.422222-2.275556 7.68-3.697778 13.653334l-3.128889 9.955555h-47.502222l-5.404444 18.204445c-7.68 25.884444-6.826667 26.453333 22.186666 22.755555 12.231111-1.422222 11.377778-3.128889 6.257778 15.075556l-4.551111 15.075555h-32.142222c-50.631111 0-51.2-1.422222-37.546667-44.657777 3.697778-13.653333 7.68-25.031111 7.68-25.031111s-5.404444-0.853333-13.084444-0.853334c-6.826667 0-13.084444 0-13.084445-0.853333 5.404444-19.057778 7.68-25.031111 7.68-26.453333 0.853333-1.422222 2.275556-2.275556 13.653334-2.275556h13.084444l6.257778-23.608889H654.222222c-9.102222 0-12.231111 0-12.231111-1.422222s6.826667-23.608889 7.68-25.884445c1.422222-1.422222 117.191111-0.568889 116.337778 0.853334z m148.48 54.613333c0 1.422222-1.422222 5.973333-2.275556 9.955556-4.551111 21.333333-10.808889 25.884444-35.271111 27.306666-8.533333 0.853333-16.213333 1.422222-16.213333 1.422223-1.422222 2.275556-1.422222 20.48 0 23.608888l2.275555 3.128889 15.36-0.853333c8.533333-0.853333 15.36-0.853333 15.36-0.853333 0 1.422222-8.533333 28.16-9.102222 28.728889-1.422222 1.422222-48.355556 0.853333-54.328889-1.422223-9.102222-3.128889-9.102222-2.275556-8.533333-50.062222l0.853333-41.528889h38.968889v15.928889h7.68c8.533333 0 9.102222-0.853333 13.084445-11.377778l2.275555-5.973333h15.36c13.653333 0.568889 15.36 0.568889 14.506667 1.991111z m71.964444-324.266667l-8.533333 36.408889h11.377778c58.88 1.422222 83.342222-65.991111 25.884444-70.542222-9.102222-0.853333-17.635556-1.422222-18.488889-1.422222-1.991111 0-1.991111 2.275556-10.24 35.555555z m-304.64 51.484445c-14.506667 5.973333-28.444444 60.586667-16.782222 68.835555 8.533333 6.826667 20.764444-4.551111 26.737778-23.608888 9.955556-34.417778 6.826667-51.2-9.955556-45.226667z m456.248889 3.982222c-15.36 7.68-26.737778 61.44-15.36 67.413333 15.36 8.248889 35.271111-20.48 35.271111-51.484444 0-14.506667-8.533333-21.333333-19.911111-15.928889zM828.871111 594.488889l-3.982222 13.368889c-2.275556 6.826667-3.697778 12.8-4.551111 13.653333 0 0.853333 3.697778-0.853333 9.102222-3.697778 15.36-7.68 19.911111-9.102222 42.097778-9.955555l19.057778-0.853334c3.128889-9.102222 3.697778-12.8 3.697777-13.653333 1.137778-0.568889-64.853333-0.568889-65.422222 1.137778z m-13.084444 43.804444l-3.128889 12.231111 65.706666-0.853333 3.697778-12.231111c-51.768889 0-66.275556 0-66.275555 0.853333z m208.213333-27.306666c-3.128889 9.955556-5.404444 17.351111-4.551111 17.351111l9.102222-3.128889c4.551111-1.422222 13.084444-3.697778 17.635556-4.551111 4.551111-0.853333 8.533333-1.422222 9.102222-1.422222 0 0 7.68-23.608889 7.68-24.177778 0 0-7.68-0.853333-16.782222-0.853334h-16.782223l-5.404444 16.782223z m-12.231111 38.684444c0 0.853333-3.128889 8.248889-5.404445 17.351111-3.128889 9.102222-5.404444 17.351111-5.404444 17.351111 0 0.853333 3.697778-0.853333 9.102222-3.128889s13.084444-4.551111 17.635556-5.404444c9.955556-1.422222 10.808889-2.275556 11.377778-5.973333 0.853333-1.422222 2.275556-7.68 3.697777-12.231111l3.128889-9.102223h-16.782222c-9.102222 0.284444-17.351111 0.284444-17.351111 1.137778z m-27.022222 87.04l33.564444 0.853333c6.826667-22.755556 9.102222-30.435556 9.102222-31.004444l-33.564444-1.422222-9.102222 31.573333z" fill="#FFFFFF" p-id="15474"></path></svg>