<?xml version="1.0" standalone="no"?><!DOCTYPE svg PUBLIC "-//W3C//DTD SVG 1.1//EN" "http://www.w3.org/Graphics/SVG/1.1/DTD/svg11.dtd"><svg t="1630746238469" class="icon" viewBox="0 0 2226 1024" version="1.1" xmlns="http://www.w3.org/2000/svg" p-id="3228" xmlns:xlink="http://www.w3.org/1999/xlink" width="104.34375" height="48"><defs><style type="text/css"></style></defs><path d="M648.904043 612.525508c113.500007 37.890982 139.243321 39.938618 139.243321 39.938618L788.147364 244.964154c0-69.555146-56.463989-125.914758-126.208447-125.914758l-535.687492 0c-69.762877 0-126.251426 56.362682-126.251426 125.914758l0 534.109554c0 69.509097 56.486502 125.876895 126.251426 125.876895l535.687492 0c69.741387 0 126.208447-56.367799 126.208447-125.876895l0-5.16258c0 0-205.004047-85.205591-308.530912-134.844128-69.421092 85.187171-158.989037 136.873344-251.964592 136.873344-157.254533 0-210.656791-137.211035-136.189775-227.542366 16.228613-19.693528 43.844577-38.492686 86.712921-49.033763 67.035766-16.419971 173.764556 10.245342 273.770224 43.159986 17.971303-33.047674 33.110095-69.434395 44.401256-108.169605l-308.22392 0 0-31.148417 158.918429 0 0-55.800887-192.477756 0 0-31.133068 192.477756 0 0-79.617315c0 0 0-13.407358 13.630439-13.407358l77.67508 0 0 93.024673L628.64872 316.272223l0 31.133068-190.30323 0 0 55.800887 155.344021 0c-14.862499 60.717873-37.45403 116.608811-65.776076 165.679413C575.052035 585.887824 617.380072 601.994664 648.904043 612.525508L648.904043 612.525508z" p-id="3229" data-spm-anchor-id="a313x.7781069.0.i18" class="" fill="#2B8DD8"></path><path d="M191.567014 545.964556c-19.693528 1.957585-56.654324 10.648524-76.872808 28.448936-60.594053 52.68185-24.341385 148.998499 98.273211 148.998499 71.26202 0 142.495388-45.446052 198.432375-118.187773C331.818291 566.489008 264.407995 538.78811 191.567014 545.964556L191.567014 545.964556z" p-id="3230" data-spm-anchor-id="a313x.7781069.0.i21" class="selected" fill="#2B8DD8"></path><path d="M1909.950877 242.252393l225.612411 0 0 44.670385 80.573083 0 0-44.670385 0-8.243755c-0.00614-0.12382-0.024559-0.180102-0.024559-0.319272 0-11.892865-9.315156-21.524223-20.866237-21.719674l-130.402979 0 0-41.630143-84.327594 0 0 41.630143-151.130046 0 0 15.151072 0 15.135722 0 44.670385 80.566944 0L1909.951901 242.252393 1909.950877 242.252393z" p-id="3231"></path><path d="M1421.830751 174.176948 1339.222311 369.561917 1402.602827 369.561917 1402.602827 602.049922 1471.898053 602.049922 1471.898053 293.668413 1446.796352 293.668413 1498.988038 174.176948 1421.830751 174.176948Z" p-id="3232"></path><path d="M2225.398316 591.398328l-25.321712-85.515652c-1.681292-5.458315-6.620791-9.410324-12.494569-9.413394l-67.084884 0 19.451004 65.679885-78.878488 0 0-127.217427 154.890696 0 0-30.28884-154.890696 0 0-59.871599 154.890696 0 0-30.28577-154.890696 0-76.794014 0-154.890696 0 0 30.28577 154.890696 0 0 59.871599-154.890696 0 0 30.28884 154.890696 0 0 127.214357-154.890696 0 0 30.2827 396.014382 0-0.335644-1.030469L2225.398316 591.398328 2225.398316 591.398328z" p-id="3233"></path><path d="M1599.059198 334.336648c-2.618641-5.368264-8.005324-9.066493-14.250562-9.115612l-59.995419 0 46.724161 147.173944 70.982658 0L1599.059198 334.336648 1599.059198 334.336648z" p-id="3234"></path><path d="M1750.930117 177.729867 1678.908804 177.729867l0 75.261101L1501.405087 252.990968l0 30.2827L1678.908804 283.273668 1678.908804 553.826618c-0.617054 6.17463-5.507434 10.993378-11.619642 11.33107l-36.603663 0 0 31.360242 93.334735 0c14.778588-0.623193 26.584472-12.863982 26.907836-28.080545l0-3.279696L1750.928071 283.273668l29.244045 0 0-30.2827-29.240975 0L1750.931141 177.729867 1750.930117 177.729867z" p-id="3235"></path><path d="M1301.532921 314.832432 1163.179876 314.832432l0-49.573045 160.422689 0 0-30.882358L1163.179876 234.377028l0-62.824861-71.50966 0-0.00921 0.01228c-7.831362 0-14.176884 6.559393-14.176884 14.667048l0 0.01535 0 48.127114L918.200372 234.373958l0 30.881334 159.284773 0 0 49.573045L943.05341 314.828338l0 30.863938 267.792069 0c0 0-14.84101 57.935504-88.295975 120.201639-65.809845-49.815569-87.805812-89.502453-87.805812-89.502453l-71.838142 0c29.057803 50.370201 70.361511 90.716094 114.833375 122.711809-40.857547 26.553773-93.827969 52.145637-162.337295 72.617901l0 36.991496c0 0 105.687064-19.944238 207.833489-80.128969 102.305037 59.709917 205.053166 80.128969 205.053166 80.128969L1328.288285 573.709457c-65.759703-23.947412-117.853152-50.2648-158.762887-75.658144C1228.77892 454.144314 1280.716826 394.552078 1301.532921 314.832432L1301.532921 314.832432z" p-id="3236"></path><path d="M1074.477648 808.562323l11.958356 36.110429 33.531698 0-66.046229-179.303712-25.625634 0-65.803705 179.303712 33.553187 0 12.479219-36.110429L1074.477648 808.562323 1074.477648 808.562323zM1042.044982 711.590757l24.803919 74.367755-50.504254 0L1042.044982 711.590757 1042.044982 711.590757z" p-id="3237"></path><path d="M1225.772446 665.36904 1225.772446 844.671729 1334.351374 844.671729 1334.351374 820.262806 1258.038314 820.262806 1258.038314 665.36904 1225.772446 665.36904Z" p-id="3238"></path><path d="M1452.653757 665.36904 1484.925764 665.36904 1484.925764 844.671729 1452.653757 844.671729 1452.653757 665.36904Z" p-id="3239"></path><path d="M1685.359726 665.36904l-69.698408 0 0 179.303712 32.262798 0 0-68.927859 37.434587 0c34.772968 0 59.061141-22.700001 59.061141-55.19202C1744.423937 688.056762 1720.134741 665.36904 1685.359726 665.36904L1685.359726 665.36904zM1683.538241 751.101633l-35.613102 0 0-61.3513 35.613102 0c17.911952 0 28.604478 15.653515 28.604478 30.801517C1712.145789 735.358067 1702.120458 751.101633 1683.538241 751.101633L1683.538241 751.101633z" p-id="3240"></path><path d="M1933.835867 808.562323l11.964496 36.110429 33.525558 0-66.046229-179.303712-25.625634 0-65.803705 179.303712 33.559327 0 12.473079-36.110429L1933.835867 808.562323 1933.835867 808.562323zM1901.392968 711.590757l24.813129 74.367755-50.513464 0L1901.392968 711.590757 1901.392968 711.590757z" p-id="3241"></path><path d="M2158.983697 665.36904 2123.800383 741.761917 2088.08495 665.36904 2053.231141 665.36904 2107.526745 771.005962 2107.526745 844.671729 2139.537809 844.671729 2139.537809 771.005962 2139.74861 770.605849 2193.842623 665.36904 2158.983697 665.36904Z" p-id="3242"></path></svg>